{"title":"Godzilla - Destroy All  Monsters (1968)","uid":5622059,"size":1404995448,"categoryP":"video","categoryS":"movies","magnet":"?xt=urn:btih:12ee655c450c60204b8c302438d4eadc79ef18a0&amp;dn=Godzilla+-+Destroy+All++Monsters+%281968%29&amp;tr=udp%3A%2F%2Ftracker.openbittorrent.com%3A80&amp;tr=udp%3A%2F%2Fopen.demonii.com%3A1337&amp;tr=udp%3A%2F%2Ftracker.coppersurfer.tk%3A6969&amp;tr=udp%3A%2F%2Fexodus.desync.com%3A6969","seeders":1,"leechers":0,"uploader":"Beebe85","files":-1,"time":1276316858,"description":"Godzilla - Destroy All Monsters (1968) Toho DVDRip, Original Japanese version\n\n &lt;a href=&quot;\nhttp://www.imdb.com/title/tt0063172/&quot; rel=&quot;nofollow&quot; target=&quot;_NEW&quot;&gt;\nhttp://www.imdb.com/title/tt0063172/&lt;/a&gt;\n\n\n\n\n\nGeneral\nComplete name                    : Godzilla - Destroy All  Monsters (1968)D_A_M_.Title2.avi\nFormat                           : AVI\nFormat/Info                      : Audio Video Interleave\nFile size                        : 1.31 GiB\nDuration                         : 1h 28mn\nOverall bit rate                 : 2105 Kbps\nMovie name                       : D_A_M_.Title2.DVDRip\nWriting application              : Lavf52.33.0\nOriginal source form/Name        : D_A_M_\n\nVideo\nID                               : 0\nFormat                           : MPEG-4 Visual\nFormat profile                   : Simple@L3\nFormat settings, BVOP            : No\nFormat settings, QPel            : No\nFormat settings, GMC             : No warppoints\nFormat settings, Matrix          : Default (H.263)\nCodec ID                         : XVID\nCodec ID/Hint                    : XviD\nDuration                         : 1h 28mn\nBit rate                         : 1646 Kbps\nWidth                            : 720 pixels\nHeight                           : 284 pixels\nDisplay aspect ratio             : 2.535\nFrame rate                       : 29.970 fps\nResolution                       : 24 bits\nColorimetry                      : 4:2:0\nScan type                        : Progressive\nBits/(Pixel*Frame)               : 0.269\nStream size                      : 1.02 GiB (78%)\nWriting library                  : XviD 1.2.1 (UTC 2008-12-04)\n\nAudio\nID                               : 1\nFormat                           : AC-3\nFormat/Info                      : Audio Coding 3\nCodec ID                         : 2000\nDuration                         : 1h 28mn\nBit rate mode                    : Constant\nBit rate                         : 448 Kbps\nChannel(s)                       : 6 channels\nChannel positions                : Front: L C R, Surround: L R, LFE\nSampling rate                    : 48.0 KHz\nStream size                      : 284 MiB (21%)\nAlignment                        : Aligned on interleaves\nInterleave, duration             : 32 ms (0.96 video frame)\nInterleave, preload duration     : 32 ms\n\n","torrent":{"xt":"urn:btih:12ee655c450c60204b8c302438d4eadc79ef18a0","amp;dn":"Godzilla+-+Destroy+All++Monsters+%281968%29","amp;tr":["udp%3A%2F%2Ftracker.openbittorrent.com%3A80","udp%3A%2F%2Fopen.demonii.com%3A1337","udp%3A%2F%2Ftracker.coppersurfer.tk%3A6969","udp%3A%2F%2Fexodus.desync.com%3A6969"],"infoHash":"12ee655c450c60204b8c302438d4eadc79ef18a0","infoHashBuffer":{"type":"Buffer","data":[18,238,101,92,69,12,96,32,75,140,48,36,56,212,234,220,121,239,24,160]},"announce":[],"urlList":[]}}